<?xml version="1.0" standalone="no"?>
<!DOCTYPE svg PUBLIC "-//W3C//DTD SVG 20010904//EN"
 "http://www.w3.org/TR/2001/REC-SVG-20010904/DTD/svg10.dtd">
<svg version="1.0" xmlns="http://www.w3.org/2000/svg"
 width="784.000000pt" height="784.000000pt" viewBox="0 0 784.000000 784.000000"
 preserveAspectRatio="xMidYMid meet">
<metadata>
Created by potrace 1.14, written by Peter Selinger 2001-2017
</metadata>
<g transform="translate(0.000000,784.000000) scale(0.100000,-0.100000)"
fill="#000000" stroke="none">
<path d="M5270 6997 c-3 -3 -32 -7 -65 -10 -33 -3 -67 -8 -75 -11 -8 -3 -28
-7 -45 -10 -42 -6 -124 -25 -165 -38 -100 -31 -287 -102 -299 -114 -11 -10 -2
-56 58 -291 40 -153 78 -296 84 -319 l12 -41 45 11 45 11 56 245 c30 135 58
256 62 270 16 64 283 122 437 95 205 -35 337 -178 353 -383 13 -171 -94 -360
-385 -677 -20 -22 -46 -51 -58 -65 -12 -14 -31 -36 -43 -50 -205 -235 -273
-384 -231 -504 23 -65 123 -193 251 -324 l122 -123 45 30 c25 17 47 35 50 40
3 4 -8 33 -24 64 -40 72 -68 186 -64 253 8 115 93 257 249 420 266 275 394
451 454 621 33 93 34 99 37 225 3 91 -1 133 -16 193 -62 241 -226 392 -501
461 -58 14 -378 31 -389 21z"/>
<path d="M3229 6086 c-5 -5 -191 -18 -269 -18 -30 0 -60 -4 -66 -9 -9 -8 -32
-12 -120 -23 -11 -2 -25 -6 -31 -9 -5 -3 -25 -9 -44 -12 -18 -3 -52 -14 -76
-25 -23 -10 -43 -16 -46 -14 -5 5 -57 -16 -227 -94 -19 -9 -60 -33 -91 -54
-31 -21 -60 -38 -64 -38 -4 0 -26 -15 -49 -33 -23 -18 -67 -50 -100 -72 -32
-22 -84 -66 -115 -98 -31 -32 -65 -66 -75 -75 -163 -141 -315 -322 -359 -428
-40 -95 -86 -238 -92 -289 -2 -16 -4 -30 -5 -30 -1 0 -3 -9 -4 -20 -10 -74
-18 -119 -20 -124 -2 -3 -7 -35 -10 -70 -7 -68 -14 -119 -22 -161 -7 -34 -13
-114 -15 -180 -1 -47 5 -104 26 -255 2 -16 7 -52 10 -80 10 -79 15 -108 22
-119 4 -6 8 -22 9 -36 7 -77 171 -490 219 -550 19 -23 110 -192 244 -454 28
-54 51 -108 51 -120 0 -13 3 -26 7 -29 12 -12 42 -107 49 -155 4 -26 9 -56 11
-67 3 -11 7 -93 9 -182 5 -225 6 -232 43 -263 17 -14 47 -38 67 -55 20 -16 53
-38 72 -47 38 -19 37 -20 135 40 l57 35 73 -13 c39 -8 77 -15 82 -16 23 -4
101 -45 123 -64 22 -18 69 -131 78 -189 3 -14 9 -37 14 -51 4 -14 11 -42 15
-63 5 -31 12 -41 38 -52 39 -17 49 -8 53 45 1 23 5 44 8 48 11 10 24 -12 29
-46 3 -18 10 -38 15 -45 6 -7 10 -14 10 -17 2 -46 67 -106 110 -102 60 6 67
10 79 33 29 60 46 153 32 179 -31 59 -30 84 4 88 17 2 27 -1 28 -10 0 -7 2
-22 4 -33 10 -50 18 -125 20 -185 1 -36 8 -78 14 -95 7 -16 12 -31 12 -32 -6
-21 10 -30 66 -39 33 -5 85 17 81 34 -5 18 15 52 30 53 9 0 27 2 39 3 19 2 26
-6 43 -51 11 -30 20 -58 20 -63 0 -33 133 -61 149 -31 5 9 9 19 9 24 0 4 6 32
13 61 10 44 16 56 36 61 34 8 43 -1 43 -45 0 -21 5 -42 10 -45 6 -3 10 -14 10
-25 0 -23 22 -31 68 -24 70 11 75 18 68 93 -7 84 -16 152 -21 169 -7 20 32 52
65 52 26 0 32 -6 53 -53 27 -57 77 -117 99 -117 8 0 23 6 33 14 16 12 18 25
16 112 -2 55 -4 117 -4 138 -1 30 5 43 24 58 13 10 56 43 94 72 62 48 73 61
94 117 37 98 59 137 82 149 21 12 48 18 199 45 46 8 91 17 100 21 8 3 30 8 49
11 35 5 70 26 125 76 17 15 34 27 38 27 4 0 18 21 31 48 48 94 63 253 31 313
-10 19 -19 36 -19 39 -1 3 -4 12 -7 20 -17 49 -27 91 -34 140 -4 30 -9 64 -10
75 -4 24 -16 218 -17 260 0 34 12 105 21 120 3 5 9 27 13 50 8 46 14 72 38
168 5 20 7 37 5 37 -3 0 -1 8 5 18 5 9 11 36 15 60 3 24 10 60 15 80 49 186
61 269 56 375 -2 60 -7 112 -9 116 -3 4 -6 27 -7 52 -1 24 -6 49 -11 55 -4 6
-11 31 -14 55 -3 24 -9 55 -14 69 -5 14 -11 41 -13 61 -3 20 -8 42 -12 49 -4
6 -9 26 -11 43 -3 18 -9 43 -13 57 -5 14 -14 45 -21 70 -7 25 -14 51 -16 58
-2 7 -3 13 -2 15 1 1 -4 11 -10 23 -6 11 -13 32 -16 45 -5 29 -37 112 -77 197
-15 34 -41 93 -55 130 -15 37 -35 81 -44 97 -40 70 -81 141 -90 155 -6 8 -14
25 -19 36 -8 19 -58 94 -179 269 -62 91 -101 132 -191 204 -49 39 -92 71 -95
71 -3 0 -24 13 -45 28 -70 51 -311 139 -405 147 -26 3 -52 8 -57 11 -6 3 -94
8 -197 10 -103 2 -194 7 -203 9 -8 3 -17 3 -20 1z m942 -2367 c30 -1 65 -6 79
-11 14 -6 61 -11 105 -13 44 -1 94 -3 112 -4 18 0 43 -11 58 -23 27 -25 32
-46 40 -198 2 -51 12 -105 24 -135 11 -28 22 -91 26 -141 l7 -89 -52 -50 c-29
-28 -67 -64 -84 -81 -42 -42 -164 -119 -201 -128 -115 -27 -209 -29 -270 -4
-16 7 -51 28 -76 48 -25 19 -77 58 -115 87 -152 113 -173 138 -218 263 -15 41
-31 82 -35 90 -9 16 23 106 47 133 21 24 111 82 143 93 29 10 63 33 118 80 51
43 117 74 169 80 25 2 48 7 50 9 3 2 8 3 12 0 3 -2 31 -5 61 -6z m-1516 -143
c33 -3 94 -8 135 -11 41 -3 90 -8 108 -12 44 -7 134 -90 165 -151 13 -26 32
-63 42 -82 10 -19 22 -43 27 -52 10 -22 10 -75 0 -82 -16 -10 -72 -133 -90
-201 -27 -94 -44 -136 -64 -159 -10 -11 -18 -23 -18 -27 0 -12 -65 -59 -86
-63 -126 -24 -163 -23 -284 8 -70 17 -101 21 -120 14 -14 -5 -35 -12 -46 -14
-32 -6 -92 -32 -98 -43 -8 -12 -84 -7 -97 6 -9 9 -22 80 -32 178 -2 17 -9 40
-16 53 -6 12 -10 22 -7 22 6 0 -45 130 -84 215 -38 83 -45 178 -17 231 17 32
86 94 105 94 6 0 32 11 58 25 26 14 60 25 76 25 16 0 38 5 48 10 11 6 45 13
77 16 32 4 60 8 61 10 4 3 39 0 157 -10z m773 -536 c10 -11 40 -59 67 -107 51
-91 117 -175 217 -277 83 -84 102 -129 102 -246 0 -58 -5 -104 -13 -118 -11
-21 -18 -23 -59 -19 -116 12 -169 47 -191 123 -24 84 -49 126 -74 122 -15 -2
-24 -13 -29 -38 -9 -38 -2 -138 12 -175 7 -19 2 -32 -26 -69 -51 -67 -58 -69
-145 -38 -102 37 -108 42 -109 82 -2 51 9 271 14 296 2 12 16 45 31 73 61 121
101 270 97 363 -1 22 35 48 65 48 12 0 31 -9 41 -20z"/>
<path d="M5352 4241 c-101 -35 -164 -124 -165 -234 -2 -107 19 -170 74 -226
94 -94 277 -101 379 -14 59 50 82 103 88 194 6 102 -15 164 -74 223 -74 74
-189 96 -302 57z"/>
<path d="M4504 1790 c-21 -8 -48 -55 -65 -114 -9 -30 -11 -42 -24 -131 -3 -22
-10 -67 -15 -100 -6 -33 -12 -71 -14 -85 -3 -14 -5 -36 -5 -50 -2 -38 -16 -56
-34 -42 -20 17 -75 8 -92 -14 -8 -11 -17 -34 -21 -52 -6 -32 -2 -48 32 -114
22 -42 17 -81 -15 -122 l-30 -37 -24 48 c-13 26 -34 74 -47 106 -12 31 -28 57
-34 57 -7 0 -27 -14 -45 -32 -28 -27 -32 -38 -28 -65 3 -18 1 -35 -4 -39 -15
-9 -76 15 -83 32 -4 11 -17 15 -48 12 -38 -3 -45 -8 -60 -38 -9 -19 -19 -48
-21 -65 -14 -91 -28 -115 -63 -115 -20 0 -29 10 -49 55 -22 52 -29 58 -90 86
-94 44 -97 41 -99 -86 -1 -47 -3 -50 -31 -55 -16 -4 -36 -4 -43 -2 -14 5 -72
116 -72 137 0 23 -49 36 -90 25 -32 -9 -41 -17 -50 -48 -7 -20 -16 -40 -19
-45 -11 -12 -42 27 -75 96 -38 76 -67 94 -111 68 -33 -19 -38 -49 -18 -128 13
-53 -4 -83 -46 -83 -37 0 -41 12 -48 135 -3 57 -12 112 -20 129 -14 26 -18 28
-55 22 -23 -4 -45 -9 -50 -12 -10 -6 -2 -110 10 -129 4 -5 8 -18 9 -28 2 -10
10 -31 18 -47 16 -32 20 -80 6 -80 -20 0 -69 94 -109 210 -24 69 -46 136 -48
150 -3 14 -9 39 -14 55 -5 17 -11 45 -12 63 -1 19 -6 35 -9 38 -4 2 -10 30
-14 62 -4 31 -11 71 -18 87 -12 34 -55 82 -77 86 -62 13 -89 -87 -65 -241 18
-116 38 -212 47 -225 3 -5 9 -37 12 -70 4 -32 11 -62 15 -65 13 -7 6 -94 -13
-173 -17 -71 -14 -162 7 -202 24 -46 113 -154 177 -215 68 -65 196 -141 285
-170 22 -7 45 -16 50 -20 14 -10 120 -48 181 -65 27 -8 86 -29 130 -48 145
-64 235 -87 316 -82 130 8 172 23 240 87 24 21 70 57 103 80 33 23 62 44 65
47 3 4 23 20 46 36 22 17 74 60 115 96 41 37 103 90 139 120 83 68 164 153
195 204 17 28 27 63 31 110 3 39 7 72 7 75 1 3 -4 28 -11 55 -23 98 -23 102
-48 540 -3 61 -6 112 -7 115 0 3 3 35 7 71 13 108 -9 158 -60 139z"/>
</g>
</svg>
